<svg width="672" height="200" viewBox="0 0 672 200" fill="none" xmlns="http://www.w3.org/2000/svg">
<g clip-path="url(#clip0_1_705)">
<path d="M655.2 0H16.8C7.52162 0 0 7.46192 0 16.6667V183.333C0 192.538 7.52162 200 16.8 200H655.2C664.478 200 672 192.538 672 183.333V16.6667C672 7.46192 664.478 0 655.2 0Z" fill="#151515"/>
<path fill-rule="evenodd" clip-rule="evenodd" d="M141.495 59.0326C155.741 59.0326 164.847 72.7548 164.847 72.7548C164.847 72.7548 150.959 80.2659 150.959 96.5659C150.959 115.916 168.414 121.549 168.414 121.549C168.414 121.549 154.638 154.083 139.16 154.083C130.457 154.083 129.875 149.099 118.311 149.099C108.265 149.099 104.882 154.077 97.2327 154.077C82.6279 154.077 63.7671 122.355 63.7671 96.5492C63.7671 69.7548 82.8631 59.0214 94.8359 59.0214C105.347 59.0214 109.732 65.1881 118.188 65.1881C125.317 65.1881 130.928 59.0214 141.495 59.0214V59.0326ZM139.042 31.6992C141.131 44.8437 129.164 61.0881 114.85 60.5603C112.75 43.8548 128.178 32.5992 139.031 31.7159L139.042 31.6992Z" fill="white"/>
<mask id="mask0_1_705" style="mask-type:luminance" maskUnits="userSpaceOnUse" x="210" y="32" width="402" height="147">
<path d="M210.918 32.5039H611.766V178.037H210.918V32.5095V32.5039Z" fill="white"/>
</mask>
<g mask="url(#mask0_1_705)">
<path fill-rule="evenodd" clip-rule="evenodd" d="M247.845 130.408L242.189 112.874C241.59 111.097 240.464 106.874 238.818 100.236H238.616C237.944 103.091 236.891 107.308 235.435 112.886L229.874 130.424H247.85L247.845 130.408ZM267.406 158.408H255.982L249.732 138.686H227.998L222.034 158.408H210.918L232.462 91.2578H245.762L267.406 158.413V158.408Z" fill="white"/>
</g>
<mask id="mask1_1_705" style="mask-type:luminance" maskUnits="userSpaceOnUse" x="210" y="32" width="402" height="147">
<path d="M210.918 32.5039H611.766V178.037H210.918" fill="white"/>
</mask>
<g mask="url(#mask1_1_705)">
<path fill-rule="evenodd" clip-rule="evenodd" d="M311.775 133.998C311.775 129.287 310.722 125.398 308.605 122.343C306.287 119.159 303.173 117.565 299.27 117.565C296.627 117.565 294.23 118.454 292.074 120.204C289.917 121.972 288.43 124.415 287.857 127.132C287.521 128.465 287.353 129.543 287.353 130.409V138.487C287.353 142.009 288.417 144.987 290.579 147.415C292.729 149.837 295.523 151.054 298.962 151.054C302.994 151.054 306.141 149.487 308.392 146.376C310.643 143.248 311.769 139.132 311.769 134.015M322.689 133.626C322.689 141.859 320.466 148.365 316.008 153.148C312.015 157.393 307.048 159.521 301.135 159.521C294.751 159.521 290.159 157.232 287.359 152.648V178.059H276.663V125.926C276.663 120.743 276.528 115.437 276.271 109.998H285.695L286.295 117.687H286.496C290.08 111.898 295.495 109.004 302.775 109.004C308.465 109.004 313.214 111.265 317.016 115.782C320.813 120.309 322.717 126.254 322.717 133.626" fill="white"/>
</g>
<mask id="mask2_1_705" style="mask-type:luminance" maskUnits="userSpaceOnUse" x="210" y="32" width="402" height="147">
<path d="M210.918 32.5039H611.766V178.037H210.918" fill="white"/>
</mask>
<g mask="url(#mask2_1_705)">
<path fill-rule="evenodd" clip-rule="evenodd" d="M367.27 133.998C367.27 129.287 366.206 125.398 364.078 122.343C361.766 119.159 358.663 117.565 354.76 117.565C352.111 117.565 349.72 118.454 347.558 120.204C345.402 121.971 343.917 124.415 343.347 127.132C343.011 128.465 342.843 129.543 342.843 130.409V138.487C342.843 142.009 343.918 144.987 346.063 147.415C348.214 149.832 351.014 151.054 354.463 151.054C358.495 151.054 361.648 149.487 363.888 146.376C366.128 143.248 367.265 139.132 367.265 134.015M378.185 133.626C378.185 141.859 375.945 148.365 371.493 153.148C367.494 157.393 362.533 159.521 356.619 159.521C350.218 159.521 345.626 157.232 342.843 152.648V178.059H332.114V125.926C332.114 120.743 331.979 115.437 331.722 109.998H341.146L341.746 117.687H341.947C345.52 111.898 350.946 109.004 358.232 109.004C363.916 109.004 368.67 111.265 372.478 115.782C376.27 120.309 378.185 126.254 378.185 133.626Z" fill="white"/>
</g>
<path fill-rule="evenodd" clip-rule="evenodd" d="M440.239 139.574C440.239 145.297 438.239 149.941 434.286 153.53C429.929 157.435 423.853 159.397 416.058 159.397C408.862 159.397 403.088 157.997 398.731 155.213L401.212 146.241C405.916 149.03 411.091 150.424 416.707 150.424C420.751 150.424 423.892 149.519 426.138 147.691C428.395 145.858 429.526 143.424 429.526 140.374C429.526 137.652 428.591 135.363 426.743 133.502C424.883 131.647 421.815 129.913 417.514 128.324C405.787 123.935 399.93 117.53 399.93 109.091C399.93 103.58 402.002 99.0743 406.129 95.5354C410.262 92.0243 415.744 90.2576 422.559 90.2576C428.663 90.2576 433.731 91.3243 437.763 93.4465L435.075 102.224C431.279 100.158 427 99.1299 422.218 99.1299C418.427 99.1299 415.459 100.063 413.336 101.924C411.555 103.58 410.648 105.602 410.648 108.008C410.648 110.658 411.679 112.858 413.728 114.58C415.52 116.169 418.768 117.902 423.455 119.758C429.223 122.091 433.451 124.813 436.167 127.924C438.895 131.047 440.255 134.935 440.255 139.574M475.782 118.074H463.966V141.574C463.966 147.563 466.049 150.547 470.221 150.547C472.142 150.547 473.738 150.38 474.981 150.047L475.283 158.213C473.178 159.008 470.4 159.408 466.956 159.408C462.717 159.408 459.413 158.108 457.027 155.519C454.642 152.919 453.443 148.574 453.443 142.463V118.035H446.41V109.98H453.449V101.113L463.977 97.9243V109.98H475.793V118.069L475.782 118.074ZM517.871 134.058C517.871 129.624 516.919 125.819 515.004 122.635C512.753 118.791 509.533 116.869 505.372 116.869C501.077 116.869 497.779 118.791 495.544 122.635C493.618 125.819 492.66 129.691 492.66 134.258C492.66 138.702 493.612 142.513 495.544 145.691C497.863 149.535 501.088 151.458 505.288 151.458C509.376 151.458 512.585 149.497 514.92 145.591C516.88 142.341 517.871 138.502 517.871 134.058ZM528.987 133.813C528.987 141.258 526.859 147.369 522.626 152.147C518.185 157.063 512.299 159.519 504.952 159.519C497.863 159.519 492.223 157.158 488.018 152.452C483.829 147.73 481.723 141.785 481.723 134.619C481.723 127.119 483.896 120.969 488.219 116.191C492.559 111.413 498.4 109.013 505.747 109.013C512.826 109.013 518.515 111.38 522.816 116.085C526.932 120.663 528.976 126.569 528.976 133.808M563.842 119.463C562.726 119.259 561.594 119.159 560.459 119.163C556.685 119.163 553.773 120.597 551.723 123.463C549.931 125.985 549.047 129.174 549.047 133.019V158.435H538.328V125.252C538.328 119.68 538.216 114.585 538.015 110.008H547.35L547.742 119.274H548.039C549.175 116.097 550.951 113.53 553.398 111.608C555.627 109.929 558.349 109.018 561.148 109.013C562.128 109.013 563.019 109.08 563.814 109.208L563.825 119.474L563.842 119.463ZM601.552 129.13C601.631 125.935 600.925 123.185 599.48 120.852C597.615 117.863 594.759 116.369 590.935 116.369C587.423 116.369 584.573 117.824 582.4 120.758C580.619 123.08 579.555 125.869 579.231 129.119L601.552 129.13ZM611.778 131.919C611.778 133.847 611.649 135.474 611.386 136.808H579.231C579.343 141.585 580.911 145.241 583.89 147.763C586.6 150.008 590.106 151.135 594.407 151.135C599.167 151.135 603.512 150.385 607.421 148.858L609.101 156.319C604.537 158.319 599.133 159.319 592.928 159.319C585.447 159.319 579.572 157.108 575.299 152.697C571.043 148.28 568.899 142.341 568.899 134.908C568.899 127.613 570.881 121.535 574.857 116.685C579.023 111.508 584.657 108.919 591.73 108.919C598.685 108.919 603.949 111.508 607.522 116.685C610.35 120.785 611.778 125.869 611.778 131.908V131.919ZM233.067 53.4632L230.283 44.8521C229.992 43.9632 229.455 41.9076 228.626 38.6299H228.525C228.189 40.041 227.696 42.1021 226.957 44.8521L224.23 53.4632H233.067ZM242.671 67.2132H237.071L233.991 57.5187H223.306L220.383 67.2187H214.906L225.49 34.2188H232.031L242.671 67.2132ZM269.159 43.4243L260.171 67.2132H255.047L246.367 43.4243H252.023L256.077 56.0076C256.76 58.1187 257.343 60.1187 257.779 62.0243H257.931C258.323 60.3132 258.905 58.3021 259.633 56.0076L263.626 43.4187H269.142L269.159 43.4243ZM287.527 55.3688C281.68 55.3688 278.751 56.791 278.751 60.1632C278.751 62.6632 280.263 63.8854 282.363 63.8854C285.051 63.8854 287.532 61.8299 287.532 59.041V55.3743L287.527 55.3688ZM288.271 67.2187L287.879 64.4799H287.728C286.121 66.6854 283.78 67.7576 280.801 67.7576C276.545 67.7576 273.521 64.7743 273.521 60.7576C273.521 54.8799 278.595 51.8465 287.375 51.8465V51.4021C287.375 48.2687 285.718 46.7021 282.447 46.7021C280.251 46.6629 278.094 47.2783 276.254 48.4687L275.179 44.991C277.379 43.6187 280.107 42.9354 283.332 42.9354C289.526 42.9354 292.651 46.2132 292.651 52.7799V61.5354C292.651 63.9465 292.751 65.8132 292.987 67.2243H288.255L288.271 67.2187Z" fill="white"/>
<mask id="mask3_1_705" style="mask-type:luminance" maskUnits="userSpaceOnUse" x="210" y="32" width="402" height="147">
<path d="M210.918 32.5039H611.766V178.037H210.918V32.5095V32.5039Z" fill="white"/>
</mask>
<g mask="url(#mask3_1_705)">
<path fill-rule="evenodd" clip-rule="evenodd" d="M307.138 67.2255H301.874V43.4255H307.138V67.2255ZM304.405 39.5033C303.987 39.5042 303.573 39.4219 303.188 39.2612C302.803 39.1005 302.455 38.8647 302.163 38.5678C301.872 38.2709 301.644 37.9189 301.492 37.5328C301.34 37.1466 301.268 36.7342 301.28 36.32C301.28 34.52 302.697 33.1922 304.506 33.1922C306.309 33.1922 307.77 34.5255 307.72 36.3311C307.72 38.2422 306.359 39.5144 304.405 39.5144V39.5033ZM321.765 67.2255H316.501V32.5033H321.765V67.2255ZM343.437 55.37C337.574 55.37 334.645 56.7922 334.645 60.1644C334.645 62.6644 336.157 63.8866 338.257 63.8866C340.928 63.8866 343.42 61.8311 343.42 59.0422V55.3755L343.437 55.37ZM344.165 67.22L343.773 64.4811H343.627C342.014 66.6866 339.674 67.7589 336.694 67.7589C332.455 67.7589 329.426 64.7755 329.426 60.7589C329.426 54.8811 334.499 51.8477 343.286 51.8477V51.4033C343.286 48.27 341.622 46.7033 338.358 46.7033C336.006 46.7033 333.962 47.2922 332.164 48.47L331.1 44.9866C333.295 43.6255 336.028 42.9311 339.248 42.9311C345.442 42.9311 348.572 46.2089 348.572 52.7866V61.5366C348.572 63.9422 348.667 65.8033 348.908 67.22H344.165ZM368.838 47.0922C365.803 47.0922 363.026 49.7366 363.026 53.4089V57.5755C363.026 60.8533 365.518 63.5477 368.738 63.5477C372.691 63.5477 375.038 60.3144 375.038 55.1755C375.038 50.3755 372.59 47.0922 368.833 47.0922M369.897 67.7589C366.537 67.7589 364.045 66.3366 362.432 63.5477H362.331L362.023 67.2144H357.543C357.678 65.3144 357.728 63.1589 357.728 60.8089V32.4922H363.003V46.8922H363.098C364.655 44.2477 367.186 42.9255 370.658 42.9255C376.37 42.9255 380.369 47.8311 380.369 54.9811C380.369 62.37 375.928 67.7589 369.88 67.7589M393.456 67.2255H388.192V32.5033H393.456V67.2255ZM417.301 52.8255C417.301 49.1589 415.453 46.5589 412.082 46.5589C409.046 46.5589 406.672 49.2033 406.314 52.8255H417.301ZM422.134 56.5922H406.314C406.426 61.1033 409.394 63.6477 413.778 63.6477C416.13 63.6477 418.27 63.2477 420.163 62.52L420.986 66.1866C418.746 67.17 416.114 67.6589 413.034 67.6589C405.625 67.6589 401.234 62.9589 401.234 55.6589C401.234 48.37 405.726 42.8811 412.451 42.8811C418.482 42.8811 422.307 47.3922 422.307 54.1977C422.318 55.1144 422.268 55.9477 422.122 56.5866L422.134 56.5922ZM454.278 46.7977C450.47 46.7977 448.022 50.37 448.022 55.3644C448.022 60.2533 450.526 63.8311 454.238 63.8311C457.934 63.8311 460.426 60.0089 460.426 55.2533C460.426 50.42 457.985 46.7922 454.283 46.7922M454.07 67.7589C447.143 67.7589 442.646 62.57 442.646 55.52C442.646 48.1755 447.238 42.9311 454.474 42.9311C461.289 42.9311 465.886 47.8755 465.886 55.1422C465.886 62.5866 461.154 67.77 454.07 67.77M494.222 67.2311H488.958V53.5644C488.958 49.3589 487.346 47.2477 484.17 47.2477C481.051 47.2477 478.895 49.9422 478.895 53.0811V67.2311H473.631V50.2311C473.631 48.1311 473.575 45.8755 473.435 43.4311H478.072L478.318 47.0977H478.464C479.864 44.5422 482.759 42.9311 485.968 42.9311C490.952 42.9311 494.217 46.7477 494.217 52.9644V67.22L494.222 67.2311ZM528.69 47.3977H522.894V58.9533C522.894 61.8977 523.914 63.3644 525.958 63.3644C526.887 63.3644 527.671 63.2644 528.31 63.12L528.45 67.1366C527.425 67.5255 526.053 67.7255 524.362 67.7255C520.201 67.7255 517.726 65.4255 517.726 59.3922V47.3922H514.27V43.4255H517.726V39.0644L522.894 37.4922V43.4255H528.69V47.3866V47.3977ZM556.595 67.2311H551.32V53.6755C551.32 49.4089 549.707 47.2533 546.538 47.2533C543.805 47.2533 541.274 49.1144 541.274 52.8866V67.2422H535.998V32.5033H541.274V46.7977H541.386C543.032 44.2033 545.418 42.9311 548.498 42.9311C553.526 42.9311 556.595 46.8589 556.595 53.0755V67.2311ZM578.687 52.8422C578.687 49.1755 576.839 46.5644 573.468 46.5644C570.444 46.5644 568.064 49.2144 567.717 52.8422H578.693H578.687ZM583.52 56.6033H567.706C567.806 61.1144 570.774 63.6589 575.165 63.6589C577.517 63.6589 579.656 63.2589 581.549 62.5311L582.378 66.1977C580.138 67.1811 577.506 67.67 574.426 67.67C567.006 67.67 562.621 62.97 562.621 55.67C562.621 48.3811 567.101 42.8922 573.838 42.8922C579.886 42.8922 583.694 47.4033 583.694 54.2089C583.716 55.1255 583.666 55.9589 583.526 56.5977L583.52 56.6033Z" fill="white"/>
</g>
</g>
<defs>
<clipPath id="clip0_1_705">
<rect width="672" height="200" fill="white"/>
</clipPath>
</defs>
</svg>
