<svg width="672" height="200" viewBox="0 0 672 200" fill="none" xmlns="http://www.w3.org/2000/svg">
<g clip-path="url(#clip0_1_727)">
<path d="M655.2 0H16.8C7.52162 0 0 7.46192 0 16.6667V183.333C0 192.538 7.52162 200 16.8 200H655.2C664.478 200 672 192.538 672 183.333V16.6667C672 7.46192 664.478 0 655.2 0Z" fill="#151515"/>
<path d="M139.776 81.1719L65.1448 40.283C63.028 39.133 61.0792 38.8552 59.5 39.3552L120.624 100.244L139.776 81.1608" fill="url(#paint0_linear_1_727)"/>
<path fill-rule="evenodd" clip-rule="evenodd" d="M139.871 119.431L165.351 105.476C170.514 102.631 170.514 98.0091 165.351 95.1758L139.776 81.1758L120.624 100.254L139.871 119.431Z" fill="url(#paint1_linear_1_727)"/>
<path d="M59.5 39.3555C57.2208 40.0555 55.748 42.3555 55.748 45.7999L55.7704 154.833C55.7704 158.255 57.1928 160.511 59.3992 161.267L120.624 100.255L59.5 39.3555Z" fill="url(#paint2_linear_1_727)"/>
<path d="M59.3994 161.277C60.9898 161.81 62.9834 161.555 65.145 160.377L139.86 119.432L120.624 100.266L59.3994 161.277Z" fill="url(#paint3_linear_1_727)"/>
<path fill-rule="evenodd" clip-rule="evenodd" d="M229.443 33.7578C234.147 33.7578 237.406 35.8578 239.523 38.0078L236.219 41.6911C234.517 40.0523 232.652 38.9245 229.499 38.9245C223.496 38.9245 219.464 43.5356 219.464 51.0578C219.464 58.6911 223.081 63.3023 229.857 63.3023C231.722 63.3023 233.581 62.7911 234.673 61.8134V54.5911H228.301V49.7356H240.044V64.48C237.72 66.63 233.738 68.4689 229.135 68.4689C220.13 68.4689 213.304 62.33 213.304 51.2189C213.304 40.2578 220.337 33.7578 229.432 33.7578M262.293 53.0523C262.293 49.0634 260.596 46.6634 257.129 46.6634C254.128 46.6634 251.541 48.8578 251.025 53.0523H262.293ZM256.973 42.1078C263.849 42.1078 267.473 47.0134 267.473 54.0245C267.473 55.1578 267.361 56.1745 267.215 56.7911H251.076C251.58 61.3467 254.492 63.9134 258.58 63.9134C260.741 63.9134 262.601 63.2467 264.46 62.0689L266.476 65.7523C264.051 67.3356 261.005 68.4634 257.796 68.4634C250.757 68.4634 245.28 63.6023 245.28 55.3078C245.285 47.1078 251.025 42.1078 256.973 42.1078ZM273.269 47.3745H269.657V42.9745L273.588 42.7189L274.316 35.8523H279.277V42.7189H285.74V47.3745H279.277V59.3523C279.277 62.3189 280.409 63.7523 282.845 63.7523C283.724 63.7523 284.76 63.4967 285.477 63.1967L286.518 67.5411C285.118 68.0023 283.36 68.4634 281.344 68.4634C275.447 68.4634 273.28 64.7745 273.28 59.3523V47.3745H273.269Z" fill="#E7E7E7"/>
<mask id="mask0_1_727" style="mask-type:luminance" maskUnits="userSpaceOnUse" x="206" y="31" width="420" height="150">
<path d="M206.013 31.6094H625.688V180.498H206.013V31.6094Z" fill="#E7E7E7"/>
</mask>
<g mask="url(#mask0_1_727)">
<path fill-rule="evenodd" clip-rule="evenodd" d="M301.683 42.7205H307.63V67.8538H301.683V42.7205ZM301.011 34.9872C301.011 32.9872 302.562 31.6094 304.679 31.6094C306.807 31.6094 308.347 32.9983 308.347 34.9872C308.347 36.9316 306.802 38.3205 304.674 38.3205C302.546 38.3205 301 36.9316 301 34.9872H301.011ZM316.12 47.376H312.497V42.976L316.434 42.7205L317.162 35.8538H322.123V42.7205H328.586V47.376H322.123V59.3538C322.123 62.3205 323.254 63.7538 325.69 63.7538C326.575 63.7538 327.606 63.4983 328.334 63.1983L329.37 67.5427C327.97 68.0038 326.211 68.4649 324.195 68.4649C318.298 68.4649 316.131 64.776 316.131 59.3538V47.376H316.12ZM354.917 63.6538C358.646 63.6538 360.92 60.3205 360.92 55.3094C360.92 50.2427 358.646 46.9205 354.917 46.9205C351.193 46.9205 348.981 50.2427 348.981 55.3094C348.981 60.326 351.193 63.6538 354.917 63.6538ZM354.917 42.0983C361.278 42.0983 367.024 46.9149 367.024 55.3094C367.024 63.6538 361.278 68.476 354.917 68.476C348.606 68.476 342.877 63.6538 342.877 55.3094C342.877 46.9205 348.606 42.1038 354.917 42.1038M372.932 42.7205H377.843L378.258 46.0983H378.459C380.738 43.8983 383.331 42.0983 386.792 42.0983C392.224 42.0983 394.598 45.7372 394.598 52.0872V67.8538H388.651V52.8538C388.651 48.7038 387.475 47.176 384.675 47.176C382.446 47.176 381.002 48.2427 378.874 50.2872V67.8538H372.938V42.7205H372.932Z" fill="#E7E7E7"/>
</g>
<mask id="mask1_1_727" style="mask-type:luminance" maskUnits="userSpaceOnUse" x="206" y="31" width="420" height="150">
<path d="M206.013 31.6094H625.688V180.498H206.013V31.6094Z" fill="white"/>
</mask>
<g mask="url(#mask1_1_727)">
<path fill-rule="evenodd" clip-rule="evenodd" d="M509.992 119.01C505.77 119.01 502.712 120.176 500.825 122.493C498.938 124.804 497.969 128.493 497.913 133.548V134.937C497.913 140.682 498.882 144.793 500.825 147.282C502.757 149.76 505.865 151.004 510.149 151.004C513.722 151.004 516.533 149.56 518.549 146.698C520.582 143.843 521.59 139.887 521.59 134.854C521.59 129.754 520.582 125.832 518.543 123.104C516.527 120.371 513.671 119.004 509.987 119.004M510.899 156.187C508.2 156.187 505.747 155.698 503.519 154.715C501.279 153.722 499.346 152.156 497.919 150.176H497.454C497.762 152.565 497.913 154.832 497.913 156.971V173.826H491.652V114.498H496.748L497.611 120.098H497.913C499.526 117.854 501.396 116.248 503.547 115.243C505.857 114.215 508.368 113.707 510.899 113.754C516.387 113.754 520.621 115.604 523.611 119.31C526.579 123.021 528.069 128.237 528.069 134.937C528.069 141.66 526.557 146.882 523.533 150.604C520.492 154.326 516.287 156.187 510.899 156.187ZM542.584 155.443H536.312V97.3095H542.584V155.443ZM564.458 151.076C568.361 151.076 571.43 150.021 573.642 147.91C575.871 145.782 576.985 142.815 576.985 139.004V135.321L570.713 135.576C565.729 135.754 562.145 136.521 559.95 137.876C557.743 139.232 556.646 141.354 556.646 144.21C556.646 146.448 557.318 148.154 558.701 149.321C560.073 150.498 561.988 151.076 564.458 151.076ZM578.603 155.448L577.371 149.626H577.063C574.991 152.198 572.936 153.932 570.881 154.832C568.837 155.737 566.272 156.193 563.209 156.193C559.104 156.193 555.89 155.148 553.56 153.06C551.231 150.971 550.066 148.004 550.066 144.132C550.066 135.865 556.741 131.521 570.114 131.132L577.131 130.91V128.354C577.131 125.154 576.431 122.776 575.031 121.243C573.631 119.715 571.391 118.948 568.327 118.948C564.883 118.948 560.991 120.004 556.64 122.087L554.708 117.337C556.747 116.248 558.981 115.393 561.406 114.76C563.794 114.145 566.252 113.833 568.719 113.832C573.647 113.832 577.299 114.91 579.679 117.082C582.053 119.248 583.246 122.715 583.246 127.498V155.443H578.598L578.603 155.448ZM586.891 114.498H593.611L602.672 137.854C604.649 143.187 605.892 147.032 606.368 149.398H606.665C607.001 148.121 607.673 145.954 608.737 142.871C609.773 139.798 613.183 130.332 618.968 114.493H625.688L607.919 161.121C606.15 165.732 604.095 168.998 601.737 170.932C599.385 172.865 596.495 173.821 593.079 173.821C591.164 173.821 589.271 173.598 587.412 173.182V168.21C588.795 168.521 590.347 168.665 592.06 168.665C596.355 168.665 599.424 166.265 601.261 161.498L603.579 155.665L586.891 114.482V114.498ZM391.194 140.054C393.187 138.076 393.361 135.354 393.361 133.804C393.361 127.637 389.637 118.043 382.458 118.043C380.207 118.043 377.782 119.165 376.399 120.876C374.926 122.671 374.495 124.987 374.495 127.21C374.495 132.948 377.877 142.465 385.314 142.465C387.507 142.412 389.603 141.553 391.194 140.054ZM388.691 156.332C388.002 156.243 387.571 156.243 386.708 156.243C385.924 156.243 381.248 156.41 377.619 157.632C375.715 158.298 370.171 160.365 370.171 166.437C370.171 172.51 376.152 176.882 385.403 176.882C393.714 176.882 398.127 172.948 398.127 167.637C398.127 163.26 395.271 160.954 388.696 156.332H388.691ZM394.834 118.304C396.833 119.926 400.977 123.36 400.977 129.86C400.977 136.204 397.337 139.204 393.714 142.026C392.594 143.126 391.283 144.348 391.283 146.232C391.283 148.11 392.588 149.137 393.54 149.91L396.659 152.298C400.467 155.482 403.923 158.387 403.923 164.298C403.923 172.354 396.038 180.493 381.164 180.493C368.62 180.493 362.572 174.571 362.572 168.237C362.572 165.148 364.112 160.793 369.236 157.782C374.59 154.526 381.864 154.104 385.756 153.837C384.535 152.304 383.158 150.671 383.158 148.032C383.158 146.56 383.589 145.698 384.02 144.671C383.068 144.76 382.116 144.837 381.248 144.837C372.087 144.837 366.895 138.071 366.895 131.393C366.895 127.46 368.71 123.087 372.428 119.921C377.356 115.898 383.236 115.21 387.923 115.21H405.748L400.204 118.293H394.839L394.834 118.304ZM351.154 148.037C353.226 145.304 353.747 141.871 353.747 138.537C353.747 131.015 350.135 116.648 339.411 116.648C336.566 116.648 333.715 117.76 331.643 119.56C328.283 122.56 327.667 126.321 327.667 130.004C327.667 138.465 331.901 152.404 342.356 152.404C345.716 152.404 349.188 150.776 351.159 148.043M340.368 154.976C326.637 154.976 319.295 144.365 319.295 134.782C319.295 123.587 328.535 114.004 341.667 114.004C354.363 114.004 362.315 123.837 362.315 134.193C362.315 144.282 354.452 154.971 340.363 154.971M304.338 148.037C306.41 145.304 306.925 141.871 306.925 138.537C306.925 131.015 303.296 116.648 292.589 116.648C289.733 116.648 286.877 117.76 284.816 119.56C281.434 122.56 280.84 126.321 280.84 130.004C280.84 138.465 285.068 152.404 295.523 152.404C298.895 152.404 302.344 150.776 304.338 148.043M293.541 154.976C279.799 154.976 272.451 144.365 272.451 134.782C272.451 123.587 281.703 114.004 294.835 114.004C307.535 114.004 315.482 123.837 315.482 134.193C315.482 144.282 307.625 154.971 293.547 154.971M265.849 153.626L253.439 156.46C248.383 157.237 243.863 157.915 239.103 157.915C215.135 157.915 206.007 140.471 206.007 126.804C206.007 110.121 218.943 94.6484 241.097 94.6484C245.586 94.6563 250.053 95.2617 254.38 96.4484C260.899 98.2596 263.939 100.493 265.843 101.782L258.636 108.571L255.601 109.26L257.774 105.815C254.817 102.982 249.43 97.7373 239.182 97.7373C225.462 97.7373 215.13 108.071 215.13 123.11C215.13 139.265 226.929 154.487 245.863 154.487C251.429 154.487 254.291 153.36 256.895 152.332V138.498L243.791 139.182L250.735 135.471H269.147L266.885 137.637C266.269 138.148 266.185 138.315 266.017 139.01C265.927 139.776 265.838 142.276 265.838 143.121V153.621L265.849 153.626Z" fill="white"/>
</g>
<mask id="mask2_1_727" style="mask-type:luminance" maskUnits="userSpaceOnUse" x="206" y="31" width="420" height="150">
<path d="M206.013 31.6094H625.688V180.498H206.013V31.6094Z" fill="white"/>
</mask>
<g mask="url(#mask2_1_727)">
<path fill-rule="evenodd" clip-rule="evenodd" d="M422.285 151.149C419.418 150.888 418.813 150.382 418.813 147.015V98.3599L418.869 97.8043C419.216 94.7932 420.078 94.2821 422.789 92.7266H410.357L403.838 95.8377H410.474V148.904C410.474 150.627 410.138 150.888 408.134 153.46H423.506L426.726 151.588C425.247 151.399 423.769 151.321 422.29 151.143M449.518 126.482C451.158 125.893 452.015 125.371 452.015 124.188C452.015 120.777 448.134 116.843 443.475 116.843C440.02 116.843 433.563 119.493 433.563 128.715C433.563 130.16 433.731 131.699 433.826 133.232L449.506 126.477L449.518 126.482ZM457.638 151.938C456.686 152.438 455.734 153.049 454.793 153.465C451.937 154.76 449.002 155.093 446.41 155.093C443.666 155.093 439.342 154.915 434.946 151.76C428.82 147.493 426.154 140.149 426.154 133.743C426.154 120.504 437.03 114.021 445.906 114.021C449.008 114.021 452.2 114.799 454.798 116.41C459.099 119.227 460.219 122.893 460.824 124.865L440.563 132.977L433.916 133.493C436.072 144.327 443.492 150.649 451.685 150.649C456.086 150.649 459.278 149.11 462.213 147.665L457.643 151.943L457.638 151.938ZM465.954 114.61V120.243H465.259V114.61H463.378V114.027H467.841V114.61H465.954ZM473.71 120.243V114.554H473.693L471.929 120.243H471.386L469.616 114.56H469.599V120.249H468.961V114.027H470.042L471.643 119.06H471.654L473.234 114.032H474.32V120.254H473.704L473.71 120.243Z" fill="white"/>
</g>
</g>
<defs>
<linearGradient id="paint0_linear_1_727" x1="1602" y1="-2109.92" x2="4069.74" y2="6217" gradientUnits="userSpaceOnUse">
<stop stop-color="#19A3B4"/>
<stop offset="0.34817" stop-color="#5BC3AF"/>
<stop offset="0.92234" stop-color="#C9F7A6"/>
<stop offset="1" stop-color="#D7FEA5"/>
</linearGradient>
<linearGradient id="paint1_linear_1_727" x1="-593.693" y1="-4292.28" x2="2246.54" y2="4914.55" gradientUnits="userSpaceOnUse">
<stop stop-color="#FC227C"/>
<stop offset="1" stop-color="#FEEB7B"/>
</linearGradient>
<linearGradient id="paint2_linear_1_727" x1="1882.07" y1="-1766.64" x2="6046.88" y2="9041.06" gradientUnits="userSpaceOnUse">
<stop stop-color="#0E4DA0"/>
<stop offset="1" stop-color="#6BFED4"/>
</linearGradient>
<linearGradient id="paint3_linear_1_727" x1="10699.9" y1="1109.25" x2="2954.64" y2="9955.29" gradientUnits="userSpaceOnUse">
<stop stop-color="#FC472E"/>
<stop offset="0.00332" stop-color="#FC472E"/>
<stop offset="1" stop-color="#893CD8"/>
</linearGradient>
<clipPath id="clip0_1_727">
<rect width="672" height="200" fill="white"/>
</clipPath>
</defs>
</svg>
